<?xml version="1.0" standalone="no"?>
<!DOCTYPE svg PUBLIC "-//W3C//DTD SVG 20010904//EN"
 "http://www.w3.org/TR/2001/REC-SVG-20010904/DTD/svg10.dtd">
<svg version="1.0" xmlns="http://www.w3.org/2000/svg"
 width="2326.000000pt" height="1516.000000pt" viewBox="0 0 2326.000000 1516.000000"
 preserveAspectRatio="xMidYMid meet">

<g transform="translate(0.000000,1516.000000) scale(0.100000,-0.100000)"
fill="currentColor" stroke="none">
<path d="M6012 11858 l3 -3303 28 -89 c134 -428 546 -811 1044 -970 169 -54
274 -70 448 -69 128 0 165 4 250 27 231 60 410 195 491 372 141 305 41 675
-273 1004 -237 249 -531 418 -868 498 -99 24 -129 27 -305 26 -170 0 -205 -3
-275 -22 -89 -25 -213 -80 -262 -118 l-33 -25 0 2985 0 2986 -125 0 -125 0 2
-3302z"/>
<path d="M8664 12960 c-355 -64 -675 -321 -867 -698 -102 -199 -179 -471 -192
-677 -3 -50 -8 -109 -10 -132 l-5 -43 80 0 c44 0 80 2 80 4 0 2 7 41 15 87
100 540 482 983 919 1066 96 18 259 13 351 -12 33 -9 101 -36 152 -60 338
-163 597 -532 684 -973 l22 -112 79 0 c68 0 78 2 78 18 0 63 -23 264 -41 356
-93 493 -387 915 -761 1091 -136 64 -236 87 -393 91 -77 1 -163 -1 -191 -6z"/>
<path d="M8735 12113 c-69 -23 -165 -119 -188 -187 -64 -188 84 -396 282 -396
81 0 139 27 208 95 89 89 113 181 76 295 -49 151 -230 243 -378 193z"/>
<path d="M14070 11729 c-780 -100 -1543 -710 -1721 -1376 -15 -55 -23 -120
-26 -223 -4 -125 -2 -157 16 -235 85 -356 378 -602 799 -671 132 -22 397 -14
537 16 385 81 756 282 1061 573 132 126 230 237 314 356 35 49 66 89 68 87 4
-4 112 -909 112 -938 0 -16 12 -18 104 -18 57 0 117 3 133 6 l29 6 -93 791
c-60 515 -101 827 -116 892 -68 284 -247 509 -502 631 -103 50 -228 88 -339
103 -88 13 -280 12 -376 0z m749 -427 c124 -63 102 -248 -67 -557 -330 -603
-1110 -1096 -1772 -1121 -154 -6 -182 3 -213 69 -55 115 28 396 191 647 152
234 411 480 673 638 313 188 617 293 974 335 89 11 181 6 214 -11z"/>
<path d="M10262 11265 c-163 -36 -328 -161 -392 -297 -110 -236 -55 -461 126
-514 108 -31 202 -3 386 118 278 183 381 204 733 153 195 -28 245 -30 335 -11
36 8 66 13 66 12 1 0 -420 -397 -936 -881 -516 -484 -943 -890 -949 -903 -18
-37 -13 -62 18 -93 51 -51 118 -39 219 38 93 72 213 113 327 113 147 0 298
-55 519 -189 156 -95 275 -154 367 -183 100 -31 284 -31 404 1 273 72 477 256
561 506 83 244 4 704 -130 760 -40 17 -93 6 -122 -26 -20 -23 -20 -18 -13
-289 4 -120 3 -127 -23 -176 -30 -57 -78 -103 -141 -136 -34 -18 -63 -23 -151
-26 -183 -7 -294 19 -536 126 -169 75 -255 102 -347 109 -40 3 -73 9 -73 12 0
4 371 355 825 781 871 818 856 802 826 859 -18 32 -68 54 -113 48 -23 -3 -65
-23 -99 -45 -44 -30 -84 -46 -147 -61 -151 -35 -302 -53 -442 -54 -177 -1
-265 22 -455 116 -223 111 -346 147 -490 146 -49 0 -118 -7 -153 -14z"/>
<path d="M8600 9550 l0 -1340 225 0 225 0 0 1340 0 1340 -225 0 -225 0 0
-1340z"/>
<path d="M2035 10720 c-35 -14 -208 -165 -293 -255 -275 -290 -469 -663 -546
-1047 -39 -194 -49 -350 -42 -643 17 -679 57 -941 242 -1583 l64 -222 -253
-288 c-298 -340 -433 -503 -582 -704 -332 -444 -516 -837 -591 -1258 -26 -146
-27 -534 -1 -697 146 -915 757 -1621 1552 -1792 216 -47 488 -52 763 -16 68
10 126 14 129 11 25 -25 27 -802 3 -966 -67 -447 -303 -802 -626 -939 -200
-85 -448 -81 -642 10 -135 63 -245 151 -328 263 l-28 39 24 -8 c178 -57 379
-13 524 116 120 107 186 258 186 422 0 113 -18 186 -70 293 -145 296 -493 393
-815 226 -92 -47 -220 -173 -263 -258 -50 -99 -65 -166 -64 -285 4 -436 275
-856 668 -1035 402 -183 856 -119 1192 167 288 245 467 620 503 1052 12 131 6
736 -7 898 l-6 76 78 27 c211 74 376 186 556 374 386 406 515 993 337 1531
-76 229 -190 419 -353 588 -123 129 -236 214 -375 286 -201 104 -391 153 -629
164 l-142 6 -9 36 c-6 20 -42 164 -81 321 -40 157 -106 402 -147 545 -42 143
-77 271 -79 285 -3 20 25 60 147 205 606 722 862 1254 895 1860 27 505 -206
1295 -551 1869 -80 133 -209 312 -235 326 -22 12 -77 12 -105 0z m379 -952
c40 -134 56 -201 71 -310 17 -122 20 -483 5 -608 -61 -491 -288 -957 -743
-1528 -62 -78 -93 -110 -98 -100 -11 20 -95 319 -124 440 -37 160 -63 333 -77
511 -18 246 7 474 78 692 38 119 154 347 231 455 77 107 245 282 343 356 66
50 266 174 281 174 4 0 19 -37 33 -82z m-686 -3688 c57 -200 136 -504 181
-692 l38 -157 -86 -26 c-373 -115 -643 -367 -778 -725 -65 -170 -88 -406 -59
-585 61 -367 276 -672 622 -880 94 -57 186 -40 220 40 30 73 10 116 -78 172
-266 167 -421 421 -421 688 0 161 45 287 148 417 90 112 267 217 435 258 79
18 140 26 140 16 0 -2 24 -120 54 -262 111 -525 196 -1001 255 -1424 48 -340
56 -431 42 -440 -22 -13 -261 -30 -425 -30 -275 0 -470 42 -696 151 -343 165
-595 408 -753 724 -121 243 -159 491 -123 801 54 464 254 908 636 1413 200
265 590 719 601 699 4 -7 25 -78 47 -158z m753 -1489 c429 -95 762 -432 855
-866 98 -457 -130 -938 -545 -1146 -45 -22 -84 -39 -86 -37 -1 1 -15 95 -29
208 -33 257 -86 599 -137 890 -36 205 -167 876 -184 943 -6 24 -4 27 16 27 13
0 63 -9 110 -19z"/>
<path d="M21782 8334 c-668 -103 -1321 -571 -1592 -1139 -244 -514 -94 -1026
366 -1254 155 -76 298 -110 494 -118 495 -20 1014 197 1454 608 95 89 236 251
312 360 32 45 59 78 61 73 2 -8 113 -939 113 -952 0 -6 252 6 258 13 3 3 -116
1050 -169 1470 -29 240 -71 373 -162 513 -149 229 -380 374 -681 427 -110 19
-327 18 -454 -1z m792 -418 c100 -42 109 -158 25 -371 -189 -485 -695 -955
-1271 -1179 -207 -81 -464 -136 -637 -136 -139 0 -181 40 -181 171 0 241 177
575 450 849 233 234 496 405 824 535 270 108 682 176 790 131z"/>
<path d="M18066 6678 c394 -689 719 -1257 723 -1261 6 -6 1471 2458 1489 2504
2 5 -81 9 -185 9 l-188 0 -415 -655 c-228 -360 -417 -655 -420 -655 -3 1 -171
295 -375 655 l-370 655 -487 0 -486 0 714 -1252z"/>
<path d="M15750 7664 c-691 -94 -1221 -451 -1385 -935 -30 -88 -55 -230 -55
-315 0 -128 42 -298 110 -439 123 -257 400 -529 665 -651 165 -76 435 -150
655 -180 123 -16 429 -18 550 -4 377 46 725 182 985 385 212 166 362 375 431
601 25 81 28 104 28 254 1 143 -2 176 -22 245 -34 120 -122 290 -207 403 -262
349 -675 572 -1178 637 -146 19 -434 18 -577 -1z m295 -238 c208 -63 314 -124
456 -265 177 -177 306 -411 373 -680 39 -154 49 -248 43 -414 -6 -180 -26
-270 -89 -397 -150 -299 -496 -398 -894 -255 -169 60 -314 153 -447 286 -170
172 -265 371 -329 692 -32 161 -32 422 0 552 54 214 173 375 337 455 104 51
154 60 315 56 121 -3 160 -8 235 -30z"/>
<path d="M11199 7175 c-179 -34 -366 -114 -504 -217 -89 -67 -301 -278 -388
-388 -109 -137 -196 -274 -282 -445 -157 -311 -172 -431 -61 -485 104 -50 258
2 334 112 16 24 44 84 61 133 72 205 215 466 312 569 93 100 219 155 288 127
49 -21 64 -64 59 -167 -5 -85 -17 -123 -272 -859 -250 -720 -267 -774 -263
-828 4 -61 22 -95 71 -131 25 -19 41 -21 189 -21 154 0 165 1 218 26 64 30
131 87 164 139 12 19 140 384 285 810 159 471 274 796 294 829 62 107 192 197
299 208 54 6 58 4 92 -30 33 -33 35 -38 35 -106 0 -39 -6 -90 -14 -113 -52
-155 -446 -1585 -446 -1616 0 -48 32 -98 80 -126 31 -19 52 -21 195 -21 152 0
163 1 217 27 64 30 135 96 160 148 9 19 116 381 238 804 121 422 232 791 247
819 14 28 49 74 77 102 130 126 282 151 332 53 33 -63 17 -148 -172 -938 -196
-822 -201 -853 -157 -951 28 -62 85 -115 146 -135 140 -46 490 27 747 156 321
161 670 473 670 597 0 63 -65 123 -131 123 -59 0 -168 -62 -271 -153 -112
-100 -169 -140 -237 -167 -73 -28 -116 -27 -137 6 -16 23 -16 30 0 97 10 40
83 349 164 687 146 614 146 615 146 735 -1 103 -4 131 -27 200 -83 250 -267
404 -483 405 -202 0 -437 -99 -644 -271 -52 -43 -61 -47 -66 -32 -41 121 -122
226 -209 271 -169 85 -501 -1 -764 -198 -51 -39 -95 -69 -97 -68 -1 2 -12 27
-24 57 -38 97 -98 169 -175 209 -62 32 -181 39 -296 17z"/>
<path d="M7860 6524 c-561 -79 -1020 -327 -1259 -680 -134 -198 -201 -467
-171 -684 43 -320 279 -668 591 -876 115 -77 214 -123 368 -174 255 -84 479
-120 748 -120 357 0 640 61 933 201 165 80 300 171 424 290 239 229 357 478
357 760 0 274 -115 535 -339 771 -256 268 -563 423 -997 503 -128 24 -514 29
-655 9z m217 -220 c107 -22 251 -75 342 -126 97 -55 275 -229 350 -343 104
-159 189 -361 233 -556 20 -90 23 -131 23 -304 0 -233 -10 -283 -82 -435 -161
-335 -554 -424 -998 -226 -156 70 -357 235 -458 377 -115 162 -197 393 -232
659 -37 273 7 535 118 702 80 120 212 216 348 252 74 20 260 20 356 0z"/>
<path d="M4730 5885 c-303 -56 -510 -197 -651 -445 -23 -41 -45 -87 -50 -104
-20 -69 31 -146 105 -160 41 -8 90 12 169 69 55 39 145 63 184 49 14 -5 35
-22 47 -37 18 -25 21 -41 20 -120 l-2 -92 -267 -770 c-290 -834 -292 -841
-249 -915 36 -61 72 -75 218 -79 99 -2 144 1 192 14 77 21 162 79 204 140 22
32 106 265 296 826 146 430 276 801 290 824 34 59 130 147 193 180 63 31 145
42 180 23 26 -14 27 -16 62 -96 26 -60 100 -135 157 -159 97 -41 259 -23 347
37 72 49 107 113 131 238 31 163 5 310 -79 434 -83 123 -173 165 -337 155
-199 -12 -452 -121 -610 -263 -23 -21 -44 -33 -49 -28 -4 5 -15 28 -24 52 -41
103 -121 191 -204 222 -63 24 -160 25 -273 5z"/>
</g>
</svg>
