<?xml version="1.0" standalone="no"?>
<!DOCTYPE svg PUBLIC "-//W3C//DTD SVG 20010904//EN"
 "http://www.w3.org/TR/2001/REC-SVG-20010904/DTD/svg10.dtd">
<svg version="1.0" xmlns="http://www.w3.org/2000/svg"
 width="512.000000pt" height="512.000000pt" viewBox="0 0 512.000000 512.000000"
 preserveAspectRatio="xMidYMid meet">

<g transform="translate(0.000000,512.000000) scale(0.100000,-0.100000)"
fill="#000000" stroke="none">
<path d="M2512 4863 c-23 -20 -1943 -4490 -1950 -4540 -5 -39 33 -83 72 -83
14 0 453 196 976 436 l951 436 951 -436 c523 -240 961 -436 975 -436 38 0 76
45 71 83 -7 50 -1927 4520 -1950 4540 -11 9 -33 17 -48 17 -15 0 -37 -8 -48
-17z m-57 -808 c50 -49 15 -135 -55 -135 -41 0 -80 39 -80 80 0 41 39 80 80
80 19 0 40 -9 55 -25z m-150 -320 c15 -14 25 -36 25 -52 0 -29 -342 -838 -363
-860 -7 -7 -27 -15 -44 -19 -27 -5 -37 -1 -64 25 -24 25 -30 38 -26 59 3 15
82 207 177 427 115 270 179 407 196 423 33 29 69 28 99 -3z"/>
</g>
</svg>
